<?xml version="1.0" encoding="utf-8"?>
<!-- Generator: Adobe Illustrator 21.0.0, SVG Export Plug-In . SVG Version: 6.00 Build 0)  -->
<svg version="1.1" id="Layer_1" xmlns="http://www.w3.org/2000/svg" xmlns:xlink="http://www.w3.org/1999/xlink" x="0px" y="0px"
	 viewBox="0 0 128 121" style="enable-background:new 0 0 128 121;" xml:space="preserve">
<style type="text/css">
	.st0{fill:#FFFFFF;}
</style>
<title>miscellaneous 57 solid</title>
<path class="st0" d="M126.9,92L90.1,74.2l0,0V66c0.8-1.5,1.6-3.1,2.2-4.7l0.3-2.7c1.3-1.5,9.4-11.5,5.3-29.1C95,17,84,12.3,74,11.8
	V9c0-1.1-0.9-2-2-2s-2,0.9-2,2v110c0,1.1,0.9,2,2,2s2-0.9,2-2V92.1c4.1-0.4,7.9-2.3,10.8-5.1c2.4-2.3,4-5.3,4.8-8.5L124,95v23
	c0,1.1,0.9,2,2,2s2-0.9,2-2V93.8C128,93,127.6,92.3,126.9,92z M86.1,74.2c0,3.7-1.5,7.3-4.1,9.9c-2.2,2.1-4.9,3.5-8,3.9v-9.5
	c4.7-0.7,9.1-3.1,12.1-6.8V74.2z M88.4,60.2C87.8,61.8,83.2,73,74,74.5V33.8c3.7-0.7,7.3-2,10.7-3.7c6.1,4.7,3.4,15.8,3.4,15.9
	C88,46.3,88,46.5,88,46.7l0.9,9.6L88.4,60.2z"/>
<path class="st0" d="M110,108.7c1.1,0,2-0.9,2-2s-0.9-2-2-2l0,0H96c-1.1,0-2,0.9-2,2s0.9,2,2,2l0,0H110z"/>
<path class="st0" d="M10,83.2h24.2l-3.3-3.3l0,0c-0.7-0.7-0.7-1.9,0-2.6c0.3-0.3,0.8-0.5,1.3-0.5h0.5c0.5,0,1,0.2,1.3,0.6
	C37.4,80.8,55.5,99,55.5,99c0.6,0.6,1.4,0.7,2.2,0.4c0.7-0.3,1.2-1,1.2-1.8v-21c0-1.1,0.9-2,2-2s2,0.9,2,2v3.9
	c2-1.9,3.1-4.5,3.1-7.2V37.6c0-5.5-4.5-9.9-10-9.9H10c-5.5,0-10,4.4-10,9.9v35.7C0,78.8,4.5,83.3,10,83.2z M17,38.6h32
	c1.1,0,2,0.9,2,2s-0.9,2-2,2l0,0H17c-1.1,0-2-0.9-2-2S15.9,38.6,17,38.6L17,38.6z M17,48.5h32c1.1,0,2,0.9,2,2s-0.9,2-2,2l0,0H17
	c-1.1,0-2-0.9-2-2S15.9,48.5,17,48.5z M17,58.4h32c1.1,0,2,0.9,2,2s-0.9,2-2,2l0,0H17c-1.1,0-2-0.9-2-2S15.9,58.4,17,58.4z M17,68.4
	h32c1.1,0,2,0.9,2,2s-0.9,2-2,2l0,0H17c-1.1,0-2-0.9-2-2S15.9,68.4,17,68.4z"/>
</svg>
