<?xml version="1.0" encoding="utf-8"?>
<!-- Generator: Adobe Illustrator 21.0.0, SVG Export Plug-In . SVG Version: 6.00 Build 0)  -->
<svg version="1.1" id="레이어_1" xmlns="http://www.w3.org/2000/svg" xmlns:xlink="http://www.w3.org/1999/xlink" x="0px"
	 y="0px" viewBox="0 0 39.4 37.4" style="enable-background:new 0 0 39.4 37.4;" xml:space="preserve">
<style type="text/css">
	.st0{fill:none;stroke:#FFFFFF;stroke-width:2;stroke-miterlimit:10;}
	.st1{fill:#FFFFFF;}
</style>
<path class="st0" d="M21.8,25.7c0,0-1-1.1-2.3-0.2c0,0-0.6,0.6-1.9,1.5S15,25.7,15,25.7l-2.4-3.9c0,0-0.6-0.9-1.3-2l0,0
	c-0.4-0.7-0.9-1.4-1.3-2c-0.9-1.8-0.4-2.5-0.4-2.5c0.3-0.7,2.1-1.2,2.9-1.7c1.3-0.9,0.7-2.2,0.7-2.2l-2.6-5.2
	c-0.3-0.7-0.9-1-1.8-0.8C7.8,5.6,6.2,6.7,6.2,6.7C5.9,6.8,5.7,7,5.4,7.2c-2,1.4-3.2,3.3-2.3,7.6c0.9,4.4,4.6,10.1,4.6,10.1
	s3.7,5.6,7.5,8.3c1.4,1,2.7,1.5,3.7,1.7c0.4,0.1,0.7,0.1,1.1,0.1c1.2,0,2.3-0.5,3.3-1.2c0,0,1.6-1,2.2-1.8c0.6-0.8,0.5-1.4,0-1.9
	L21.8,25.7z"/>
<g>
	<polygon class="st1" points="27.6,14.3 25.8,12.7 22.8,15.4 32.4,15.4 29.4,12.7 	"/>
	<polygon class="st1" points="22.4,9.5 22.4,14.8 25.2,12.1 	"/>
	<polygon class="st1" points="32.9,14.8 32.9,9.5 30.1,12.1 	"/>
	<polygon class="st1" points="32.4,8.8 22.8,8.8 27.6,13.2 	"/>
	<path class="st1" d="M35.4,6.6C32.7,3,27.8,1.7,23.7,3.5c-5.4,2.4-7.4,8.8-4.6,13.8c2.2,3.9,6.7,5.6,10.8,4.6
		c0.3-0.1,0.6,0,0.8,0.1l2.3,1.1c0.5,0.2,1-0.1,1.1-0.6l0.2-2.5c0-0.3,0.2-0.5,0.3-0.7C37.8,15.9,38.4,10.6,35.4,6.6z M33.7,15.7
		c0,0.2-0.2,0.4-0.4,0.4H21.9c-0.2,0-0.4-0.2-0.4-0.4V8.5c0-0.2,0.2-0.4,0.4-0.4h11.3c0.2,0,0.4,0.2,0.4,0.4V15.7z"/>
</g>
</svg>
