<?xml version="1.0" encoding="utf-8"?>
<!-- Generator: Adobe Illustrator 22.0.1, SVG Export Plug-In . SVG Version: 6.00 Build 0)  -->
<svg version="1.1" id="Layer_1" xmlns="http://www.w3.org/2000/svg" xmlns:xlink="http://www.w3.org/1999/xlink" x="0px" y="0px"
	 viewBox="0 0 40 40" style="enable-background:new 0 0 40 40;" xml:space="preserve">
<title>dynamic-static-step-plan-dynamics</title>
<path d="M20,0.6c-1.5,0-2.7,1.2-2.7,2.7s1.2,2.7,2.7,2.7c1.5,0,2.7-1.2,2.7-2.7C22.7,1.8,21.5,0.6,20,0.6z M20,4.6
	c-0.7,0-1.3-0.6-1.3-1.3s0.6-1.3,1.3-1.3s1.3,0.6,1.3,1.3C21.3,4,20.7,4.6,20,4.6z"/>
<path d="M20,8.6c-1.5,0-2.7,1.2-2.7,2.7s1.2,2.7,2.7,2.7c1.5,0,2.7-1.2,2.7-2.7C22.7,9.8,21.5,8.6,20,8.6z M20,12.6
	c-0.7,0-1.3-0.6-1.3-1.3c0-0.7,0.6-1.3,1.3-1.3s1.3,0.6,1.3,1.3C21.3,12,20.7,12.6,20,12.6z"/>
<path d="M20,16.6c-1.5,0-2.7,1.2-2.7,2.7c0,1.5,1.2,2.7,2.7,2.7c1.5,0,2.7-1.2,2.7-2.7C22.7,17.8,21.5,16.6,20,16.6z M20,20.6
	c-0.7,0-1.3-0.6-1.3-1.3s0.6-1.3,1.3-1.3s1.3,0.6,1.3,1.3C21.3,20,20.7,20.6,20,20.6z"/>
<path d="M20,24.6c-1.5,0-2.7,1.2-2.7,2.7c0,1.5,1.2,2.7,2.7,2.7c1.5,0,2.7-1.2,2.7-2.7C22.7,25.8,21.5,24.6,20,24.6z M20,28.6
	c-0.7,0-1.3-0.6-1.3-1.3c0-0.7,0.6-1.3,1.3-1.3s1.3,0.6,1.3,1.3C21.3,28,20.7,28.6,20,28.6z"/>
<path d="M20,32.6c-1.5,0-2.7,1.2-2.7,2.7c0,1.5,1.2,2.7,2.7,2.7c1.5,0,2.7-1.2,2.7-2.7C22.7,33.8,21.5,32.6,20,32.6z M20,36.6
	c-0.7,0-1.3-0.6-1.3-1.3c0-0.7,0.6-1.3,1.3-1.3s1.3,0.6,1.3,1.3C21.3,36,20.7,36.6,20,36.6z"/>
<path d="M35.3,2.6H24v1.3h11.3c1.8,0,3.3,1.5,3.3,3.3s-1.5,3.3-3.3,3.3H24v1.3h11.3c2.6,0,4.7-2.1,4.7-4.7S37.9,2.6,35.3,2.6z"/>
<path d="M35.3,18.6H24v1.3h11.3c1.8,0,3.3,1.5,3.3,3.3s-1.5,3.3-3.3,3.3H24v1.3h11.3c2.6,0,4.7-2.1,4.7-4.7S37.9,18.6,35.3,18.6z"/>
<path d="M4.7,35.9H16v-1.3H4.7c-1.8,0-3.3-1.5-3.3-3.3c0-1.8,1.5-3.3,3.3-3.3H16v-1.3H4.7c-2.6,0-4.7,2.1-4.7,4.7S2.1,35.9,4.7,35.9
	z"/>
<path d="M4.7,19.9H16v-1.3H4.7c-1.8,0-3.3-1.5-3.3-3.3s1.5-3.3,3.3-3.3H16v-1.3H4.7c-2.6,0-4.7,2.1-4.7,4.7S2.1,19.9,4.7,19.9z"/>
<path d="M24,35.9h15.3c0.4,0,0.7-0.3,0.7-0.7c0-0.2-0.1-0.3-0.2-0.5l-3.3-3.3l-0.9,0.9l2.2,2.2H24V35.9z"/>
<path d="M0,3.9h15.3c0.4,0,0.7-0.3,0.7-0.7c0-0.2-0.1-0.4-0.2-0.5l-3.3-2.7l-0.8,1l1.8,1.5H0V3.9z"/>
<rect y="6.6" width="1.3" height="1.3"/>
<rect x="2.7" y="6.6" width="1.3" height="1.3"/>
<rect x="5.3" y="6.6" width="1.3" height="1.3"/>
<rect x="8" y="6.6" width="1.3" height="1.3"/>
<rect x="10.7" y="6.6" width="1.3" height="1.3"/>
<rect x="13.3" y="6.6" width="1.3" height="1.3"/>
<rect x="24" y="38.6" width="1.3" height="1.3"/>
<rect x="26.7" y="38.6" width="1.3" height="1.3"/>
<rect x="29.3" y="38.6" width="1.3" height="1.3"/>
<rect x="32" y="38.6" width="1.3" height="1.3"/>
<rect x="34.7" y="38.6" width="1.3" height="1.3"/>
<rect x="37.3" y="38.6" width="1.3" height="1.3"/>
</svg>
