<?xml version="1.0" encoding="utf-8"?>
<!-- Generator: Adobe Illustrator 21.0.0, SVG Export Plug-In . SVG Version: 6.00 Build 0)  -->
<svg version="1.1" id="레이어_1" xmlns="http://www.w3.org/2000/svg" xmlns:xlink="http://www.w3.org/1999/xlink" x="0px"
	 y="0px" viewBox="0 0 39.1 37.9" style="enable-background:new 0 0 39.1 37.9;" xml:space="preserve">
<style type="text/css">
	.st0{fill:#FFFFFF;}
</style>
<g>
	<path class="st0" d="M20.5,10.7c-2.7,0.3-4.1,3.5-2.4,5.7c0.8,1,1.4,2.7,1.5,4h0.7v-4l-1.2-1.2l0.8-0.8l1,1l1-0.9l0.8,0.8l-1.2,1.2
		v4h0.7c0.2-1.5,0.7-3,1.5-4.1C25.6,14,23.7,10.4,20.5,10.7z"/>
	<path class="st0" d="M34.4,7.2H30V6.4C30,6.2,30,6.1,29.8,6l-4.7-4.7C25,1.1,24.8,1,24.7,1H13.5c-0.9,0-1.6,0.7-1.6,1.6v4.5H7.4
		c-1.2,0-2.1,1-2.1,2.1v21.2c0,1.2,1,2.1,2.1,2.1h9.2l-1,3.4h-0.4c-0.3,0-0.6,0.2-0.6,0.6c0,0.3,0.2,0.6,0.6,0.6h11.4
		c0.3,0,0.6-0.2,0.6-0.6c0-0.3-0.2-0.6-0.6-0.6h-0.4l-1-3.3h9.2c1.2,0,2.1-1,2.1-2.1V9.3C36.6,8.1,35.6,7.2,34.4,7.2z M25.2,2.9
		L28,5.7h-2.3c-0.3,0-0.5-0.2-0.5-0.5V2.9z M24.6,17c-0.7,1-1.2,2.6-1.3,4c0,0.3-0.3,0.6-0.6,0.6h-3.7c-0.3,0-0.6-0.3-0.6-0.6
		c0-1.2-0.5-2.9-1.2-3.9c-2.3-2.8-0.5-7.1,3.2-7.5C24.5,9.2,27.1,13.9,24.6,17z M15.2,3.7h6.8c0.3,0,0.6,0.2,0.6,0.6
		c0,0.3-0.2,0.6-0.6,0.6h-6.8c-0.3,0-0.6-0.2-0.6-0.6C14.6,3.9,14.8,3.7,15.2,3.7z M15.2,6.1h6.8c0.3,0,0.6,0.2,0.6,0.6
		c0,0.3-0.2,0.6-0.6,0.6h-6.8c-0.3,0-0.6-0.2-0.6-0.6C14.6,6.4,14.8,6.1,15.2,6.1z M6.4,9.3c0-0.6,0.5-1,1-1h4.4v14.3
		c0,0.9,0.7,1.6,1.6,1.6h14.8c0.9,0,1.6-0.7,1.6-1.6V8.3h4.4c0.6,0,1,0.5,1,1v19.1H6.4V9.3z M16.8,36l1-3.3H24l1,3.3H16.8z
		 M35.4,30.5c0,0.6-0.5,1-1,1c-14.1,0-22.3,0-27,0c-0.6,0-1-0.5-1-1v-1.1h29V30.5z"/>
</g>
</svg>
