<?xml version="1.0" encoding="utf-8"?>
<!-- Generator: Adobe Illustrator 22.0.1, SVG Export Plug-In . SVG Version: 6.00 Build 0)  -->
<svg version="1.1" id="Layer_1" xmlns:sketch="http://www.bohemiancoding.com/sketch/ns"
	 xmlns="http://www.w3.org/2000/svg" xmlns:xlink="http://www.w3.org/1999/xlink" x="0px" y="0px" viewBox="0 0 40 40"
	 style="enable-background:new 0 0 40 40;" xml:space="preserve">
<title>device_020-responsive-smartphone-screen-mobile-tablet-display</title>
<desc>Created with Sketch.</desc>
<g sketch:type="MSPage">
	<g transform="translate(-450.000000, -90.000000)" sketch:type="MSArtboardGroup">
		<g transform="translate(450.000000, 93.000000)" sketch:type="MSLayerGroup">
			<path sketch:type="MSShapeGroup" d="M31.9,3.3V2.6c0-1.1-0.9-2-2-2H2.1c-1.1,0-2,0.9-2,2v21.2c0,1.1,0.9,2,2,2H13l-0.9,3.7
				c0,0.1-0.2,0.3-0.3,0.3h-1.7c-0.4,0-0.7,0.3-0.7,0.7c0,0.4,0.3,0.7,0.7,0.7h7.3v-1.3h-3.9l1-4h2.9v-1.3H2.1
				c-0.4,0-0.7-0.3-0.7-0.7v-3.3h15.9v-1.3H1.4V2.7C1.4,2.3,1.7,2,2.1,2h27.8c0.4,0,0.7,0.3,0.7,0.7v0.7H31.9z M16,23.9
				c0.7,0,1.3-0.6,1.3-1.3c0-0.7-0.6-1.3-1.3-1.3c-0.7,0-1.3,0.6-1.3,1.3C14.7,23.3,15.3,23.9,16,23.9z"/>
			<path sketch:type="MSShapeGroup" d="M37.2,10V6.6c0-1.1-0.9-2-2-2H20.7c-1.1,0-2,0.9-2,2v23.9c0,1.1,0.9,2,2,2h4.6v-1.3h-4.6
				c-0.4,0-0.7-0.3-0.7-0.7v-3.3h5.3v-1.3H20V8.6h15.9V10H37.2z M20,6.6C20,6.3,20.3,6,20.7,6h14.6c0.4,0,0.7,0.3,0.7,0.7v0.7H20
				V6.6z"/>
			<path sketch:type="MSShapeGroup" d="M28.6,11.3h9.3c1.1,0,2,0.9,2,2v18.6c0,1.1-0.9,2-2,2h-9.3c-1.1,0-2-0.9-2-2V13.3
				C26.6,12.2,27.5,11.3,28.6,11.3z M28,27.2h10.6V15.3H28V27.2z M28,13.3c0-0.4,0.3-0.7,0.7-0.7h9.3c0.4,0,0.7,0.3,0.7,0.7v0.7H28
				V13.3z M28,31.9c0,0.4,0.3,0.7,0.7,0.7h9.3c0.4,0,0.7-0.3,0.7-0.7v-3.3H28V31.9z"/>
			<circle sketch:type="MSShapeGroup" cx="33.3" cy="30.5" r="1.3">
			</circle>
		</g>
	</g>
</g>
</svg>
