<?xml version="1.0" encoding="utf-8"?>
<!-- Generator: Adobe Illustrator 22.0.1, SVG Export Plug-In . SVG Version: 6.00 Build 0)  -->
<svg version="1.1"
	 id="Layer_1" xmlns:cc="http://creativecommons.org/ns#" xmlns:dc="http://purl.org/dc/elements/1.1/" xmlns:inkscape="http://www.inkscape.org/namespaces/inkscape" xmlns:rdf="http://www.w3.org/1999/02/22-rdf-syntax-ns#" xmlns:sodipodi="http://sodipodi.sourceforge.net/DTD/sodipodi-0.dtd" xmlns:svg="http://www.w3.org/2000/svg"
	 xmlns="http://www.w3.org/2000/svg" xmlns:xlink="http://www.w3.org/1999/xlink" x="0px" y="0px" viewBox="0 0 40 40"
	 style="enable-background:new 0 0 40 40;" xml:space="preserve">
<g transform="translate(0,-952.36218)">
	<path d="M15.9,952.4c-4.4,0-8,3.6-8,8c0,1.7,0.5,3.6,1.5,5c0.3,0.4,0.8,0.5,1.2,0.2c0.4-0.3,0.5-0.8,0.2-1.2c0,0,0,0,0,0
		c-0.7-1-1.2-2.6-1.2-3.9c0-3.5,2.8-6.3,6.3-6.3s6.3,2.8,6.3,6.3c0,1.4-0.5,3-1.2,3.9c-0.3,0.4-0.2,1,0.2,1.3c0.4,0.3,1,0.2,1.3-0.2
		c1-1.4,1.5-3.2,1.5-5C24,956,20.4,952.4,15.9,952.4z M15.9,958.6c-2,0-3.6,1.6-3.6,3.6v12.3c-0.6-1.2-1.5-2.5-2.8-2.8
		c-1.7-0.5-3.8,0.9-4.2,2.5c-0.2,0.9-0.1,1.9,0.4,3.1c2.3,5.6,5.2,10.9,8.7,15c0.2,0.2,0.4,0.3,0.7,0.3h12.1c0.2,0,0.4-0.1,0.5-0.2
		c1.3-1,2.3-2.6,3.2-4.5s1.5-4.2,1.9-6.4c0.3-2.2,0.3-4.2-0.1-6.1c-0.5-1.8-1.7-3.2-3.5-3.4c-0.4,0-0.9,0-1.3,0.1
		c-0.2-0.5-0.6-1-0.9-1.3c-0.7-0.5-1.3-0.6-1.9-0.6c-0.5,0-1,0.2-1.4,0.5c-0.2-0.3-0.4-0.6-0.6-0.8c-0.7-0.5-1.4-0.6-1.9-0.6
		c-0.5,0-0.9,0.1-1.3,0.3v-7.5C19.5,959.8,17.6,958.6,15.9,958.6z M15.9,960.4c1,0,1.8,0.8,1.8,1.8v9.4c0,0.4,0.3,0.8,0.7,0.9
		s0.8-0.1,1-0.5c0.2-0.4,0.9-0.8,1.4-0.8c0.2,0,0.6,0.1,0.9,0.3c0.3,0.2,0.5,0.4,0.5,1.1c0,0.4,0.3,0.8,0.7,0.9
		c0.4,0.1,0.8-0.1,1-0.5c0.4-0.7,0.6-0.8,1-0.9c0.1,0,0.6,0.1,0.8,0.3c0.3,0.2,0.5,0.4,0.5,1.1c0,0.3,0.2,0.7,0.5,0.8
		c0.3,0.1,0.7,0.1,1-0.2c0.3-0.2,0.7-0.2,1.1-0.2c1.1,0.1,1.6,0.8,2,2.1c0.4,1.3,0.4,3.3,0.1,5.3c-0.3,2-0.9,4.1-1.7,5.9
		c-0.7,1.7-1.6,3-2.4,3.6H15.5c-3.1-3.7-6.1-9.4-8.1-14.2c-0.4-1-0.4-1.6-0.3-2c0.3-0.9,1.3-1.4,2.1-1.2c1,0.4,1.2,1,1.6,1.7
		l1.8,3.6c0.2,0.4,0.6,0.6,1,0.5c0.4-0.1,0.7-0.5,0.7-0.9v-16.1C14.1,961.2,14.9,960.4,15.9,960.4L15.9,960.4z"/>
</g>
</svg>
